<svg width="36" height="37" viewBox="0 0 36 37" fill="none" xmlns="http://www.w3.org/2000/svg">
<path d="M14.4027 32.0392V21.1282H10.2267C10.0099 21.1282 9.80193 21.042 9.64862 20.8887C9.49531 20.7354 9.40918 20.5275 9.40918 20.3107V15.9952C9.40918 15.7784 9.49531 15.5704 9.64862 15.4171C9.80193 15.2638 10.0099 15.1777 10.2267 15.1777H14.3862V11.0002C14.2867 10.0095 14.4053 9.00905 14.7337 8.0691C15.062 7.12916 15.5922 6.2725 16.287 5.5593C16.9817 4.84611 17.8242 4.29367 18.7552 3.94079C19.6862 3.58791 20.6832 3.44315 21.6762 3.51667H25.1562C25.3751 3.51624 25.5853 3.60187 25.7416 3.75509C25.8979 3.90831 25.9877 4.11683 25.9917 4.33567V7.98967C25.987 8.20812 25.8969 8.41604 25.7407 8.56885C25.5845 8.72167 25.3747 8.80722 25.1562 8.80717H22.9812C20.6322 8.80717 20.1807 9.92017 20.1807 11.5567V15.1762H25.7652C25.8812 15.1723 25.9968 15.1938 26.1037 15.2391C26.2106 15.2844 26.3064 15.3525 26.3843 15.4386C26.4623 15.5247 26.5205 15.6267 26.555 15.7376C26.5895 15.8485 26.5995 15.9656 26.5842 16.0807L26.0787 20.4127C26.0534 20.6111 25.9562 20.7933 25.8055 20.9249C25.6549 21.0565 25.4612 21.1283 25.2612 21.1267H20.2152V32.0377C20.2176 32.2303 20.1814 32.4215 20.1088 32.6C20.0361 32.7784 19.9284 32.9405 19.7921 33.0767C19.6558 33.2129 19.4936 33.3203 19.3151 33.3928C19.1366 33.4653 18.9453 33.5013 18.7527 33.4987H15.8472C15.656 33.4991 15.4666 33.4615 15.2901 33.388C15.1136 33.3145 14.9534 33.2066 14.819 33.0707C14.6845 32.9347 14.5785 32.7733 14.507 32.596C14.4356 32.4186 14.4001 32.2304 14.4027 32.0392Z" fill="black"/>
</svg>
