<svg width="36" height="37" viewBox="0 0 36 37" fill="none" xmlns="http://www.w3.org/2000/svg">
<path d="M19.5419 3.5C21.2294 3.5045 22.0859 3.5135 22.8254 3.5345L23.1164 3.545C23.4524 3.557 23.7839 3.572 24.1844 3.59C25.7804 3.665 26.8694 3.917 27.8249 4.2875C28.8149 4.6685 29.6489 5.1845 30.4829 6.017C31.2456 6.76684 31.8358 7.67388 32.2124 8.675C32.5829 9.6305 32.8349 10.7195 32.9099 12.317C32.9279 12.716 32.9429 13.0475 32.9549 13.385L32.9639 13.676C32.9864 14.414 32.9954 15.2705 32.9984 16.958L32.9999 18.077V20.042C33.0036 21.1361 32.9921 22.2302 32.9654 23.324L32.9564 23.615C32.9444 23.9525 32.9294 24.284 32.9114 24.683C32.8364 26.2805 32.5814 27.368 32.2124 28.325C31.8369 29.3267 31.2466 30.2339 30.4829 30.983C29.7328 31.7455 28.8259 32.3356 27.8249 32.7125C26.8694 33.083 25.7804 33.335 24.1844 33.41C23.8285 33.4268 23.4725 33.4418 23.1164 33.455L22.8254 33.464C22.0859 33.485 21.2294 33.4955 19.5419 33.4985L18.4229 33.5H16.4594C15.3648 33.5038 14.2702 33.4923 13.1759 33.4655L12.8849 33.4565C12.5288 33.443 12.1728 33.4275 11.8169 33.41C10.2209 33.335 9.13189 33.083 8.17489 32.7125C7.17389 32.3366 6.26721 31.7463 5.51839 30.983C4.75496 30.2334 4.16423 29.3263 3.78739 28.325C3.41689 27.3695 3.16489 26.2805 3.08989 24.683C3.07318 24.3271 3.05818 23.9711 3.04489 23.615L3.03739 23.324C3.00975 22.2302 2.99725 21.1361 2.99989 20.042V16.958C2.9957 15.8639 3.0067 14.7698 3.03289 13.676L3.04339 13.385C3.05539 13.0475 3.07039 12.716 3.08839 12.317C3.16339 10.7195 3.41539 9.632 3.78589 8.675C4.16256 7.67286 4.75447 6.76554 5.51989 6.017C6.26853 5.25421 7.1746 4.66398 8.17489 4.2875C9.13189 3.917 10.2194 3.665 11.8169 3.59C12.2159 3.572 12.5489 3.557 12.8849 3.545L13.1759 3.536C14.2697 3.50935 15.3638 3.49785 16.4579 3.5015L19.5419 3.5ZM17.9999 11C16.0108 11 14.1031 11.7902 12.6966 13.1967C11.2901 14.6032 10.4999 16.5109 10.4999 18.5C10.4999 20.4891 11.2901 22.3968 12.6966 23.8033C14.1031 25.2098 16.0108 26 17.9999 26C19.989 26 21.8967 25.2098 23.3032 23.8033C24.7097 22.3968 25.4999 20.4891 25.4999 18.5C25.4999 16.5109 24.7097 14.6032 23.3032 13.1967C21.8967 11.7902 19.989 11 17.9999 11ZM17.9999 14C18.5908 13.9999 19.176 14.1162 19.722 14.3423C20.268 14.5683 20.7642 14.8997 21.1821 15.3175C21.6 15.7353 21.9316 16.2313 22.1578 16.7772C22.384 17.3232 22.5005 17.9083 22.5006 18.4993C22.5007 19.0902 22.3844 19.6754 22.1584 20.2214C21.9323 20.7674 21.6009 21.2635 21.1832 21.6815C20.7654 22.0994 20.2693 22.4309 19.7234 22.6572C19.1775 22.8834 18.5923 22.9999 18.0014 23C16.8079 23 15.6633 22.5259 14.8194 21.682C13.9755 20.8381 13.5014 19.6935 13.5014 18.5C13.5014 17.3065 13.9755 16.1619 14.8194 15.318C15.6633 14.4741 16.8079 14 18.0014 14M25.8764 8.75C25.3791 8.75 24.9022 8.94754 24.5506 9.29917C24.1989 9.65081 24.0014 10.1277 24.0014 10.625C24.0014 11.1223 24.1989 11.5992 24.5506 11.9508C24.9022 12.3025 25.3791 12.5 25.8764 12.5C26.3737 12.5 26.8506 12.3025 27.2022 11.9508C27.5538 11.5992 27.7514 11.1223 27.7514 10.625C27.7514 10.1277 27.5538 9.65081 27.2022 9.29917C26.8506 8.94754 26.3737 8.75 25.8764 8.75Z" fill="black"/>
</svg>
